<?xml version="1.0" encoding="utf-8"?>
<svg height="32px" width="32px" viewBox="0 0 32 32" xmlns="http://www.w3.org/2000/svg" xmlns:bx="https://boxy-svg.com">
  <g stroke-width="9.92746" transform="matrix(0.031176, 0, 0, 0.028398, 1.018542, 2.565125)" style="">
    <path d="M 962.305 629.391 C 962.305 629.391 961.889 626.839 961.352 624.3 C 961.081 623.03 960.619 621.07 960.174 619.625 C 959.891 618.71 959.15 616.712 958.475 615.396 C 957.951 614.372 956.302 611.825 954.966 610.409 C 952.698 607.999 943.74 605.127 937.783 603.924 C 937.783 603.924 787.171 618.456 787.171 618.456 C 777.527 620.092 765.393 625.449 759.111 631.901 C 752.83 638.349 747.789 650.629 746.411 660.311 L 743.522 701.72 L 664.012 707.39 L 658.884 672.599 C 656.707 662.933 650.554 650.953 643.67 645.009 C 636.78 639.065 624.03 634.727 614.152 633.986 L 455.191 633.986 C 445.313 634.727 432.563 639.065 425.678 645.009 C 418.793 650.953 412.64 662.933 410.463 672.599 L 405.331 707.39 L 325.821 701.72 L 322.932 660.302 C 321.554 650.62 316.517 638.349 310.236 631.897 C 303.951 625.445 291.812 620.088 282.168 618.452 L 131.481 603.924 C 125.212 605.294 115.755 608.611 113.461 611.371 C 112.133 612.969 110.597 615.788 110.144 616.882 C 110.064 617.07 109.985 617.265 109.91 617.473 L 106.801 618.435 L 106.397 682.897 L 235.317 703.689 L 238.352 747.168 C 239.784 757.012 245.033 769.471 251.485 775.936 C 257.933 782.396 270.392 787.666 280.236 789.119 L 440.767 800.57 C 441.65 800.628 442.957 800.687 443.985 800.687 C 453.859 800.687 466.609 795.596 473.485 789.647 C 480.362 783.703 486.502 771.727 488.675 762.066 L 494.228 724.411 L 575.124 724.411 L 580.673 762.062 C 582.845 771.727 588.994 783.707 595.874 789.651 C 602.759 795.6 615.509 800.682 625.387 800.682 C 626.341 800.682 627.66 800.628 628.618 800.566 L 789.119 789.119 C 798.964 787.666 811.41 782.396 817.862 775.936 C 824.314 769.471 829.563 757.017 830.995 747.168 L 834.03 703.673 L 962.896 682.793 L 962.563 630.935 L 962.305 629.391 Z M 921.341 647.028 L 921.345 647.661 L 795.085 668.124 L 789.769 744.292 C 790.356 746.56 790.293 745.057 788.616 746.739 C 786.938 748.421 788.437 748.483 786.164 747.9 L 625.679 759.348 C 625.479 759.368 625.616 759.356 625.387 759.356 C 623.189 759.356 624.684 759.93 622.89 758.382 C 621.096 756.829 621.146 758.328 621.558 756.038 L 610.802 683.084 L 458.55 683.084 L 447.79 756.038 C 448.197 758.332 448.243 756.842 446.453 758.394 C 444.663 759.939 446.17 759.36 443.985 759.36 C 443.814 759.36 443.922 759.368 443.589 759.344 L 283.175 747.9 C 280.898 748.483 282.409 748.421 280.731 746.739 C 279.054 745.057 278.992 746.564 279.578 744.296 L 274.254 668.107 L 147.94 647.74 L 147.944 647.12 L 127.373 653.388 C 132.351 651.869 139.34 648.947 142.545 646.508 L 278.205 659.587 C 280.544 659.108 279.05 659.108 280.627 660.727 C 282.205 662.346 282.243 660.86 281.706 663.191 L 287.092 740.383 L 440.622 751.339 L 451.349 678.63 C 450.936 676.345 450.887 677.84 452.685 676.291 C 454.479 674.738 452.989 674.572 455.191 675.313 L 614.152 675.313 C 616.359 674.572 614.868 674.743 616.667 676.291 C 618.461 677.84 618.411 676.345 618.003 678.635 L 628.722 751.339 L 782.251 740.383 L 787.638 663.183 C 787.101 660.856 787.134 662.351 788.716 660.731 C 790.293 659.112 788.803 659.112 791.143 659.591 L 921.341 647.028 Z" style="fill: none;" transform="matrix(0.9876710176467896, -0.15654499828815457, 0.15654499828815457, 0.9876710176467896, -108.17501851434645, 30.02114347266445)"/>
  </g>
  <rect x="18.924" y="5.122" width="12.279" height="12.279" style="stroke: rgb(0, 0, 0); fill: rgb(151, 149, 149);"/>
  <path d="M 11.474 4.238 L 21.005 21.101 L 1.944 21.101 L 11.474 4.238 Z" style="stroke: rgb(0, 0, 0); fill: rgb(206, 206, 206);" bx:shape="triangle 1.944 4.238 19.061 16.863 0.5 0 1@2aeefd9f"/>
  <ellipse style="stroke: rgb(0, 0, 0); fill: rgb(174, 172, 172);" cx="19.573" cy="21.668" rx="7.989" ry="7.989"/>
</svg>